<?xml version="1.0" standalone="no"?>
<!DOCTYPE svg PUBLIC "-//W3C//DTD SVG 20010904//EN"
 "http://www.w3.org/TR/2001/REC-SVG-20010904/DTD/svg10.dtd">
<svg version="1.0" xmlns="http://www.w3.org/2000/svg"
 width="500.000000pt" height="500.000000pt" viewBox="0 0 500.000000 500.000000"
 preserveAspectRatio="xMidYMid meet">
<metadata>
Created by potrace 1.14, written by Peter Selinger 2001-2017
</metadata>
<g transform="translate(0.000000,500.000000) scale(0.100000,-0.100000)"
fill="#000000" stroke="none">
<path d="M2300 3627 c-3 -3 -23 -7 -45 -10 -22 -3 -78 -11 -125 -17 -47 -6
-96 -13 -110 -15 -14 -2 -43 -6 -65 -9 -66 -9 -408 -57 -435 -61 -14 -2 -63
-9 -110 -15 -47 -6 -96 -13 -110 -15 -14 -2 -45 -7 -70 -10 -25 -3 -56 -8 -70
-10 -14 -2 -63 -9 -110 -15 -127 -17 -147 -19 -188 -26 -20 -3 -50 -7 -67 -9
-16 -3 -46 -7 -66 -10 -20 -4 -51 -8 -70 -10 -37 -3 -178 -23 -219 -30 -14 -2
-63 -9 -110 -15 -116 -15 -117 -15 -123 -58 -3 -20 -8 -46 -11 -58 -4 -19 3
-22 97 -37 56 -9 113 -19 127 -22 14 -3 77 -14 140 -25 63 -11 126 -22 140
-25 14 -2 36 -7 50 -10 14 -2 45 -7 70 -11 24 -3 47 -7 50 -9 4 -2 26 -6 51
-9 49 -7 80 -12 154 -26 28 -6 115 -21 195 -35 80 -14 195 -35 255 -45 61 -11
128 -22 150 -26 22 -3 58 -9 80 -14 22 -5 94 -18 160 -29 168 -29 174 -30 230
-41 53 -10 62 -12 183 -32 42 -6 80 -17 84 -22 4 -5 5 -26 3 -45 -2 -20 -5
-73 -6 -117 -1 -45 -5 -87 -8 -93 -5 -8 -23 -8 -62 -1 -30 5 -67 12 -84 14
-16 3 -102 17 -190 31 -88 15 -172 28 -187 30 -15 2 -71 11 -125 21 -54 9
-107 18 -118 19 -33 5 -158 25 -185 29 -52 9 -279 46 -370 61 -52 8 -106 17
-120 19 -20 4 -278 45 -385 61 -71 11 -141 23 -170 29 -21 4 -72 12 -140 22
-22 3 -43 8 -46 10 -11 6 -15 -19 -9 -55 5 -35 20 -45 90 -55 39 -6 81 -15
192 -37 57 -11 114 -23 128 -25 14 -3 50 -9 80 -15 30 -6 69 -13 85 -16 17 -2
86 -16 154 -29 69 -13 127 -24 129 -24 2 0 1 -73 -3 -162 -4 -90 -9 -194 -10
-233 -12 -276 -17 -380 -21 -384 -7 -7 55 -86 103 -132 98 -94 237 -178 393
-236 73 -28 270 -78 345 -88 28 -3 66 -9 85 -12 40 -6 94 -11 128 -12 26 -1
26 -1 7 -151 -2 -19 -7 -60 -10 -90 -3 -30 -8 -78 -11 -105 -7 -70 15 -90 96
-89 97 2 158 40 152 95 -1 6 -9 107 -17 209 -3 36 -8 79 -10 95 l-4 30 82 1
c100 0 324 11 392 19 103 12 211 25 230 29 11 2 40 7 65 10 70 11 133 24 285
62 222 56 401 129 530 215 81 55 99 81 99 143 0 57 -13 274 -19 321 -2 17 -6
64 -10 105 -12 162 -16 206 -20 235 -2 17 -7 60 -10 97 l-7 66 79 17 c43 9 96
20 118 25 22 5 54 11 70 14 17 3 89 17 160 32 72 14 144 28 160 31 187 31 236
58 286 153 17 33 23 61 23 110 0 155 -62 215 -249 240 -180 24 -202 28 -235
34 -14 3 -92 14 -175 26 -155 22 -193 27 -235 35 -14 2 -45 7 -70 10 -25 3
-88 12 -140 20 -52 8 -113 16 -135 19 -22 3 -51 8 -65 11 -14 3 -47 8 -75 11
-27 3 -75 10 -105 15 -30 5 -76 11 -101 14 -26 3 -55 7 -65 9 -18 3 -80 13
-134 21 -57 9 -309 44 -355 51 -27 3 -52 7 -55 9 -3 2 -34 6 -70 10 -36 4 -68
9 -71 11 -11 6 -164 16 -169 11z"/>
</g>
</svg>
